<svg width="131.468750" height="30.000000" viewBox="0 0 131.469 30" fill="none" xmlns="http://www.w3.org/2000/svg" xmlns:xlink="http://www.w3.org/1999/xlink">
	<desc>
			Created with Pixso.
	</desc>
	<defs>
		<clipPath id="clip8_443">
			<rect id="logo-image" rx="-0.500000" width="29.000000" height="29.000000" transform="translate(0.500000 0.500000)" fill="white" fill-opacity="0"/>
		</clipPath>
	</defs>
	<rect id="logo-image" rx="-0.500000" width="29.000000" height="29.000000" transform="translate(0.500000 0.500000)" fill="#FFFFFF" fill-opacity="0"/>
	<g clip-path="url(#clip8_443)">
		<path id="Vector" d="M28.89 0.03C28.88 0.03 28.87 0.03 28.86 0.03C28.86 0.03 28.86 0.03 28.85 0.03L0.61 8.8C0.25 8.91 0 9.25 0 9.64C-0.01 10.02 0.24 10.36 0.61 10.48L11.5 13.9L9.44 19.42C9.32 19.74 9.4 20.1 9.65 20.34C9.89 20.59 10.25 20.67 10.57 20.55L16.09 18.49L19.51 29.38C19.63 29.75 19.97 29.99 20.35 29.99C20.35 29.99 20.35 29.99 20.35 29.99C20.74 29.99 21.08 29.74 21.19 29.38L29.95 1.14C29.96 1.13 29.96 1.13 29.96 1.13C29.96 1.12 29.96 1.11 29.96 1.1C30.14 0.44 29.54 -0.15 28.89 0.03ZM3.83 9.64L24.58 3.2L12.48 12.36L3.83 9.64ZM11.76 18.23L13.38 13.88L24.58 5.41L16.11 16.61L11.76 18.23ZM20.35 26.16L17.63 17.51L26.79 5.41L20.35 26.16Z" fill="#0F1138" fill-opacity="1.000000" fill-rule="nonzero"/>
		<path id="Vector" d="M6.98 18.03C6.64 17.69 6.08 17.69 5.74 18.03L0.46 23.31C0.12 23.65 0.12 24.21 0.46 24.55C0.81 24.9 1.36 24.9 1.71 24.55L6.98 19.28C7.33 18.93 7.33 18.38 6.98 18.03Z" fill="#1A75E8" fill-opacity="1.000000" fill-rule="nonzero"/>
		<path id="Vector" d="M11.96 23.01C11.61 22.66 11.06 22.66 10.71 23.01L5.44 28.28C5.09 28.63 5.09 29.18 5.44 29.53C5.78 29.87 6.34 29.87 6.68 29.53L11.96 24.25C12.3 23.91 12.3 23.35 11.96 23.01Z" fill="#1A75E8" fill-opacity="1.000000" fill-rule="nonzero"/>
		<path id="Vector" d="M7.71 22.28C7.37 21.94 6.81 21.94 6.47 22.28L0.25 28.49C-0.09 28.84 -0.09 29.39 0.25 29.74C0.6 30.08 1.15 30.08 1.5 29.74L7.71 23.52C8.05 23.18 8.05 22.62 7.71 22.28Z" fill="#1A75E8" fill-opacity="1.000000" fill-rule="nonzero"/>
	</g>
	<path id="logo-text" d="M62.5 16.71C62.5 15.39 62.79 14.34 63.38 13.56Q63.77 13.04 64.3 12.75Q64.95 12.39 65.81 12.39Q66.44 12.39 66.96 12.63Q67.45 12.86 67.85 13.31L67.85 9L70.11 9L70.11 21L68.07 21L67.96 20.1Q67.52 20.65 66.95 20.91Q66.43 21.15 65.79 21.15C64.8 21.15 64 20.76 63.39 19.98Q62.5 18.8 62.5 16.71ZM49.61 10.35C49.61 10.02 49.72 9.74 49.95 9.52Q50 9.47 50.05 9.43Q50.38 9.19 50.88 9.19C51.26 9.19 51.57 9.3 51.8 9.52Q51.93 9.65 52.02 9.8Q52.14 10.05 52.14 10.35Q52.14 10.67 52.01 10.91Q51.93 11.07 51.79 11.2Q51.73 11.26 51.66 11.31L51.66 11.31Q51.34 11.53 50.88 11.53C50.5 11.53 50.19 11.42 49.96 11.2Q49.83 11.08 49.75 10.93Q49.61 10.68 49.61 10.35ZM47.85 16.35L43.35 16.35L43.35 21L41.01 21L41.01 9.62L48.42 9.62L48.42 11.52L43.35 11.52L43.35 14.46L47.85 14.46L47.85 16.35ZM75.93 14.75L78.3 9.62L80.86 9.62L77.13 16.87L77.13 21L74.75 21L74.75 16.87L71.01 9.62L73.58 9.62L75.93 14.75ZM55.96 12.54L56.03 13.52Q56.42 13.03 56.93 12.75Q57.6 12.39 58.46 12.39C59.35 12.39 60.02 12.65 60.46 13.17C60.89 13.7 61.12 14.49 61.13 15.53L61.13 21L58.87 21L58.87 15.59C58.87 15.11 58.77 14.76 58.56 14.55C58.35 14.33 58 14.22 57.52 14.22Q57.03 14.22 56.67 14.43Q56.32 14.64 56.09 15.03L56.09 21L53.83 21L53.83 12.54L55.96 12.54ZM80.89 16.69C80.89 15.85 81.05 15.1 81.37 14.45C81.69 13.79 82.16 13.28 82.76 12.92C83.37 12.57 84.08 12.39 84.88 12.39Q86.12 12.39 87.02 12.93Q87.37 13.14 87.67 13.43C88.39 14.13 88.79 15.08 88.88 16.28L88.89 16.85C88.89 18.15 88.53 19.19 87.81 19.98C87.08 20.76 86.11 21.15 84.89 21.15C83.67 21.15 82.7 20.76 81.97 19.98C81.25 19.2 80.89 18.14 80.89 16.79L80.89 16.69ZM103.99 14.66C103.68 14.62 103.41 14.6 103.18 14.6C102.32 14.6 101.76 14.89 101.5 15.46L101.5 21L99.24 21L99.24 12.54L101.37 12.54L101.43 13.55C101.89 12.77 102.51 12.39 103.32 12.39C103.57 12.39 103.8 12.42 104.02 12.49L103.99 14.66ZM52.01 21L49.75 21L49.75 12.54L52.01 12.54L52.01 21ZM95.35 20.14C94.79 20.81 94.02 21.15 93.03 21.15C92.13 21.15 91.44 20.89 90.96 20.37Q90.25 19.59 90.23 18.08L90.23 12.54L92.49 12.54L92.49 18C92.49 18.88 92.89 19.32 93.69 19.32C94.46 19.32 94.98 19.06 95.27 18.53L95.27 12.54L97.53 12.54L97.53 21L95.41 21L95.35 20.14ZM83.14 16.85C83.14 17.66 83.29 18.27 83.6 18.7C83.9 19.12 84.33 19.33 84.89 19.33C85.44 19.33 85.87 19.12 86.17 18.71C86.48 18.28 86.64 17.61 86.64 16.69C86.64 15.9 86.48 15.29 86.17 14.86C85.87 14.43 85.44 14.21 84.88 14.21C84.33 14.21 83.9 14.43 83.6 14.86C83.29 15.29 83.14 15.95 83.14 16.85ZM64.75 16.87C64.75 17.66 64.89 18.27 65.17 18.69C65.44 19.11 65.84 19.32 66.37 19.32Q66.95 19.32 67.34 19.05Q67.66 18.83 67.85 18.44L67.85 15.1Q67.66 14.71 67.35 14.49Q66.96 14.22 66.39 14.22Q65.94 14.22 65.61 14.42Q64.75 14.95 64.75 16.87Z" fill="#0F1138" fill-opacity="1.000000" fill-rule="evenodd"/>
	<path id="logo-text" d="M130.6 20.02Q131.46 18.88 131.46 16.85L131.46 16.72Q131.46 14.66 130.58 13.53C130 12.77 129.19 12.39 128.16 12.39C127.31 12.39 126.63 12.69 126.1 13.3L126.1 9L123.85 9L123.85 21L125.88 21L125.98 20.1C126.53 20.8 127.26 21.15 128.17 21.15Q129.12 21.15 129.81 20.73Q130.26 20.46 130.6 20.02ZM110.6 9.62L112.94 9.62L112.94 17.5Q112.94 18.49 112.54 19.27L112.54 19.27Q112.5 19.34 112.46 19.42C112.14 19.97 111.69 20.4 111.1 20.7Q111.08 20.71 111.06 20.72Q110.2 21.15 109.13 21.15Q107.36 21.15 106.36 20.28L106.36 20.28Q106.34 20.26 106.32 20.24Q106.11 20.05 105.95 19.84Q105.31 18.98 105.31 17.64L107.67 17.64Q107.67 18.47 108.02 18.87Q108.04 18.89 108.05 18.91L108.05 18.91Q108.41 19.27 109.13 19.27Q109.56 19.27 109.88 19.08Q110.06 18.97 110.2 18.81Q110.6 18.35 110.6 17.5L110.6 9.62ZM114.45 16.69Q114.45 15.43 114.93 14.45C115.26 13.79 115.72 13.28 116.32 12.92Q116.39 12.89 116.45 12.85Q117.32 12.39 118.44 12.39Q119.68 12.39 120.59 12.93Q120.93 13.14 121.23 13.43C121.95 14.13 122.36 15.08 122.44 16.28L122.46 16.85Q122.46 18.5 121.68 19.59L121.68 19.59Q121.54 19.79 121.37 19.98Q121.05 20.32 120.67 20.57Q119.75 21.15 118.46 21.15Q117.17 21.15 116.25 20.57Q115.86 20.33 115.53 19.98Q115.43 19.86 115.33 19.73Q114.45 18.6 114.45 16.79L114.45 16.69ZM116.71 16.85Q116.71 18.06 117.16 18.7Q117.34 18.95 117.59 19.11Q117.95 19.33 118.46 19.33Q118.92 19.33 119.27 19.13Q119.54 18.98 119.74 18.71Q120.2 18.07 120.2 16.69Q120.2 15.51 119.74 14.86C119.43 14.43 119 14.21 118.44 14.21C117.89 14.21 117.46 14.43 117.16 14.86Q116.71 15.5 116.71 16.85ZM128.8 14.82C129.07 15.21 129.21 15.83 129.21 16.68Q129.21 17.74 129.04 18.25C128.81 18.97 128.33 19.33 127.6 19.33Q126.97 19.33 126.56 19.02Q126.28 18.81 126.1 18.44L126.1 15.1C126.38 14.52 126.87 14.22 127.59 14.22C128.13 14.22 128.53 14.42 128.8 14.82Z" fill="#1A75E8" fill-opacity="1.000000" fill-rule="evenodd"/>
</svg>
