<svg aria-hidden="true" style="position: absolute; width: 0; height: 0; overflow: hidden;" version="1.1" xmlns="http://www.w3.org/2000/svg" xmlns:xlink="http://www.w3.org/1999/xlink">
<defs>
<symbol id="mail-icon" viewBox="0 0 32 32">
<path d="M25.323 1.067h-18.667c-1.771 0-3.456 0.704-4.715 1.941-1.237 1.259-1.941 2.944-1.941 4.715v16c0 1.771 0.704 3.456 1.941 4.715 1.259 1.237 2.944 1.941 4.715 1.963h18.667c1.771-0.021 3.456-0.725 4.715-1.963 1.237-1.259 1.941-2.944 1.963-4.715v-16c-0.021-1.771-0.725-3.456-1.963-4.715-1.259-1.237-2.944-1.941-4.715-1.941zM6.656 3.733h18.667c0.789 0 1.579 0.235 2.24 0.683s1.173 1.088 1.472 1.813l-10.219 10.219c-0.747 0.747-1.771 1.173-2.816 1.173-1.067 0-2.091-0.427-2.837-1.173l-10.219-10.219c0.299-0.725 0.811-1.365 1.472-1.813s1.451-0.683 2.24-0.683zM25.323 27.733h-18.667c-1.067 0-2.069-0.427-2.837-1.173-0.747-0.768-1.152-1.771-1.152-2.837v-13.995l8.619 8.597c1.237 1.259 2.944 1.963 4.715 1.963 1.749 0 3.456-0.704 4.715-1.963l8.619-8.597v13.995c0 1.067-0.427 2.069-1.173 2.837-0.768 0.747-1.771 1.173-2.837 1.173z"></path>
</symbol>
<symbol id="education-icon" viewBox="0 0 32 32">
<path d="M25.333 8h-6.24c-0.533-0.387-1.133-0.667-1.76-0.827v-0.507l4.707-2.213c0.187-0.12 0.347-0.28 0.453-0.48s0.173-0.427 0.173-0.653c0-0.227-0.067-0.44-0.173-0.64s-0.267-0.373-0.453-0.493l-4.267-2c-0.333-0.147-0.707-0.227-1.080-0.2-0.36 0.027-0.72 0.147-1.027 0.347-0.307 0.187-0.56 0.467-0.733 0.787-0.187 0.32-0.28 0.693-0.267 1.053v5c-0.64 0.16-1.24 0.44-1.773 0.827h-6.227c-1.773 0-3.467 0.693-4.72 1.947s-1.947 2.947-1.947 4.72v13.333c0 1.053 0.413 2.067 1.16 2.827 0.76 0.747 1.773 1.173 2.84 1.173h24c1.053 0 2.067-0.427 2.827-1.173 0.747-0.76 1.173-1.773 1.173-2.827v-13.333c-0.013-1.773-0.707-3.467-1.96-4.72s-2.947-1.947-4.707-1.947zM29.080 13.333h-2.88c-1.053-0.013-2.080-0.427-2.827-1.173l-1.493-1.493h3.453c0.813 0 1.627 0.253 2.293 0.733s1.173 1.147 1.453 1.933zM6.667 10.667h3.44l-1.493 1.493c-0.747 0.747-1.773 1.16-2.827 1.173h-2.88c0.28-0.787 0.787-1.453 1.453-1.933s1.48-0.733 2.307-0.733zM17.333 29.333h-2.667v-4c0-0.36 0.133-0.693 0.387-0.947s0.587-0.387 0.947-0.387c0.347 0 0.68 0.133 0.933 0.387s0.4 0.587 0.4 0.947v4zM28 29.333h-8v-4c0-1.067-0.427-2.080-1.173-2.84-0.76-0.747-1.773-1.16-2.827-1.16-1.067 0-2.080 0.413-2.84 1.16-0.747 0.76-1.16 1.773-1.16 2.84v4h-8c-0.36 0-0.693-0.147-0.947-0.4s-0.387-0.587-0.387-0.933v-12h3.12c0.867 0 1.747-0.173 2.547-0.507 0.813-0.333 1.547-0.827 2.16-1.453l3.613-3.613c0.507-0.493 1.173-0.773 1.893-0.773 0.707 0 1.373 0.28 1.88 0.773l3.613 3.613c0.613 0.627 1.347 1.12 2.16 1.453 0.8 0.333 1.68 0.507 2.547 0.507h3.133v12c0 0.347-0.147 0.68-0.4 0.933s-0.587 0.4-0.933 0.4zM9.333 20c0 0.347-0.147 0.68-0.4 0.933s-0.587 0.4-0.933 0.4h-1.333c-0.36 0-0.693-0.147-0.947-0.4s-0.387-0.587-0.387-0.933c0-0.36 0.133-0.693 0.387-0.947s0.587-0.387 0.947-0.387h1.333c0.347 0 0.68 0.133 0.933 0.387s0.4 0.587 0.4 0.947zM9.333 25.333c0 0.347-0.147 0.68-0.4 0.933s-0.587 0.4-0.933 0.4h-1.333c-0.36 0-0.693-0.147-0.947-0.4s-0.387-0.587-0.387-0.933c0-0.36 0.133-0.693 0.387-0.947s0.587-0.387 0.947-0.387h1.333c0.347 0 0.68 0.133 0.933 0.387s0.4 0.587 0.4 0.947zM26.667 20c0 0.347-0.147 0.68-0.4 0.933s-0.587 0.4-0.933 0.4h-1.333c-0.36 0-0.693-0.147-0.947-0.4s-0.387-0.587-0.387-0.933c0-0.36 0.133-0.693 0.387-0.947s0.587-0.387 0.947-0.387h1.333c0.347 0 0.68 0.133 0.933 0.387s0.4 0.587 0.4 0.947zM26.667 25.333c0 0.347-0.147 0.68-0.4 0.933s-0.587 0.4-0.933 0.4h-1.333c-0.36 0-0.693-0.147-0.947-0.4s-0.387-0.587-0.387-0.933c0-0.36 0.133-0.693 0.387-0.947s0.587-0.387 0.947-0.387h1.333c0.347 0 0.68 0.133 0.933 0.387s0.4 0.587 0.4 0.947zM18.667 16c0 0.52-0.16 1.040-0.453 1.48s-0.707 0.773-1.2 0.973c-0.493 0.2-1.027 0.253-1.547 0.16-0.507-0.107-0.987-0.36-1.36-0.733s-0.627-0.853-0.733-1.36c-0.093-0.52-0.040-1.053 0.16-1.547s0.547-0.907 0.973-1.2c0.44-0.293 0.96-0.44 1.493-0.44 0.707 0 1.373 0.28 1.88 0.773 0.493 0.507 0.787 1.173 0.787 1.893z"></path>
</symbol>
<symbol id="video-icon" viewBox="0 0 32 32">
<path d="M30.533 11.933c-0.453-0.227-0.947-0.32-1.44-0.28-0.493 0.053-0.96 0.227-1.36 0.52l-2.44 1.827c-0.173-1.653-0.933-3.173-2.16-4.28s-2.827-1.72-4.467-1.72h-0.12l-5.493-5.507c-0.373-0.373-0.813-0.667-1.293-0.867-0.493-0.2-1.013-0.307-1.533-0.293h-8.893c-0.36 0-0.693 0.133-0.947 0.387s-0.387 0.587-0.387 0.947c0 0.347 0.133 0.68 0.387 0.933s0.587 0.4 0.947 0.4h8.893c0.347 0 0.693 0.133 0.933 0.387l3.613 3.613h-8.107c-1.773 0-3.467 0.693-4.72 1.947s-1.947 2.947-1.947 4.72v10.667c0 1.76 0.693 3.453 1.947 4.707s2.947 1.947 4.72 1.96h12c1.64-0.013 3.24-0.627 4.467-1.733s1.987-2.627 2.16-4.267l2.44 1.813c0.4 0.293 0.867 0.48 1.36 0.52s0.987-0.053 1.427-0.267c0.453-0.227 0.827-0.56 1.080-0.987 0.267-0.427 0.4-0.907 0.4-1.4v-11.36c0-0.493-0.133-0.987-0.4-1.4-0.253-0.427-0.627-0.76-1.067-0.987zM22.667 25.333c0 1.053-0.427 2.067-1.173 2.827-0.76 0.747-1.773 1.173-2.827 1.173h-12c-1.067 0-2.080-0.427-2.84-1.173-0.747-0.76-1.16-1.773-1.16-2.827v-10.667c0-1.067 0.413-2.080 1.16-2.84 0.76-0.747 1.773-1.16 2.84-1.16h12c1.053 0 2.067 0.413 2.827 1.16 0.747 0.76 1.173 1.773 1.173 2.84v10.667zM29.333 25.667l-4-2.973v-5.4l4-2.973v11.347z"></path>
</symbol>
<symbol id="securuty-icon" viewBox="0 0 32 32">
<path d="M8.627 29.707c-0.293 0-0.573-0.093-0.813-0.267-0.227-0.187-0.4-0.427-0.48-0.707-0.067-0.28-0.053-0.587 0.053-0.853s0.293-0.493 0.547-0.653c4.733-2.84 4.733-8.92 4.733-12.56 0-1.067 0.413-2.080 1.16-2.84 0.76-0.747 1.773-1.16 2.84-1.16 1.053 0 2.067 0.413 2.827 1.16 0.747 0.76 1.173 1.773 1.173 2.84 0 0.347-0.147 0.68-0.4 0.933s-0.587 0.4-0.933 0.4c-0.36 0-0.693-0.147-0.947-0.4s-0.387-0.587-0.387-0.933c0-0.36-0.147-0.693-0.4-0.947s-0.587-0.387-0.933-0.387c-0.36 0-0.693 0.133-0.947 0.387s-0.387 0.587-0.387 0.947c0 3.92 0 11.24-6.027 14.853-0.2 0.12-0.44 0.187-0.68 0.187zM15.24 31.6c3.040-3.067 4.827-7.373 5.28-12.827 0.013-0.173 0-0.347-0.053-0.52-0.053-0.16-0.133-0.32-0.253-0.453-0.107-0.133-0.253-0.253-0.4-0.333-0.16-0.080-0.333-0.12-0.507-0.133-0.173-0.027-0.347-0.013-0.52 0.040s-0.32 0.147-0.453 0.253c-0.133 0.12-0.253 0.253-0.333 0.413s-0.12 0.32-0.133 0.507c-0.413 4.867-1.893 8.533-4.52 11.173-0.253 0.253-0.387 0.587-0.387 0.947 0 0.347 0.147 0.68 0.4 0.933 0.24 0.253 0.587 0.387 0.933 0.387 0.36 0 0.693-0.133 0.947-0.387v0zM22.173 31.36c0.813-1.347 1.48-2.773 2.013-4.253 0.107-0.32 0.080-0.68-0.067-1-0.147-0.307-0.427-0.56-0.747-0.667-0.333-0.12-0.693-0.107-1.013 0.040-0.307 0.147-0.56 0.4-0.68 0.733-0.48 1.307-1.067 2.56-1.787 3.76-0.093 0.147-0.147 0.307-0.173 0.48s-0.027 0.36 0.013 0.52c0.040 0.173 0.12 0.333 0.227 0.48 0.107 0.133 0.227 0.253 0.387 0.347 0.293 0.187 0.653 0.24 1 0.16 0.173-0.040 0.333-0.12 0.48-0.227 0.133-0.093 0.253-0.227 0.347-0.373zM25.333 22.92c0.493-2.733 0.707-5.493 0.667-8.253-0.013-1.893-0.587-3.733-1.653-5.293s-2.587-2.747-4.36-3.427c-1.76-0.667-3.693-0.8-5.52-0.347-1.84 0.44-3.493 1.427-4.76 2.84-0.12 0.133-0.213 0.28-0.28 0.44-0.067 0.173-0.093 0.347-0.080 0.533 0 0.173 0.053 0.347 0.12 0.507 0.080 0.16 0.187 0.307 0.32 0.427s0.293 0.213 0.453 0.267c0.173 0.067 0.347 0.080 0.533 0.067 0.173-0.013 0.347-0.053 0.507-0.133s0.293-0.2 0.413-0.333c0.907-1 2.080-1.707 3.4-2.027 1.307-0.32 2.68-0.227 3.947 0.253 1.253 0.48 2.347 1.333 3.107 2.44 0.773 1.12 1.173 2.427 1.187 3.787 0.040 2.587-0.16 5.187-0.627 7.733-0.067 0.347 0.013 0.707 0.213 1 0.187 0.293 0.493 0.507 0.84 0.573 0.093 0.013 0.173 0.027 0.267 0.027 0.307-0.013 0.6-0.12 0.84-0.307 0.24-0.2 0.4-0.48 0.467-0.773zM10 14.667c-0.013-0.373 0.027-0.747 0.080-1.12 0.040-0.173 0.053-0.36 0.013-0.533-0.027-0.173-0.107-0.347-0.2-0.493-0.107-0.16-0.227-0.28-0.387-0.387-0.147-0.093-0.32-0.16-0.493-0.187-0.187-0.040-0.373-0.027-0.547 0.013s-0.333 0.12-0.48 0.227c-0.147 0.107-0.267 0.253-0.36 0.4-0.093 0.16-0.147 0.333-0.16 0.52-0.093 0.507-0.133 1.027-0.133 1.56 0 6.187-1.8 9.333-5.333 9.333-0.36 0-0.693 0.133-0.947 0.387s-0.387 0.587-0.387 0.947c0 0.347 0.133 0.68 0.387 0.933s0.587 0.4 0.947 0.4c5.147 0 8-4.28 8-12zM28.267 31.213c2.187-5.24 3.24-10.88 3.067-16.547 0-2.227-0.507-4.413-1.467-6.4-0.080-0.16-0.187-0.293-0.32-0.413s-0.28-0.2-0.453-0.267c-0.16-0.053-0.333-0.080-0.507-0.067-0.187 0.013-0.347 0.053-0.507 0.133s-0.307 0.187-0.413 0.307c-0.12 0.133-0.213 0.293-0.267 0.453-0.053 0.173-0.080 0.347-0.067 0.52 0 0.173 0.053 0.347 0.133 0.507 0.787 1.627 1.2 3.413 1.2 5.227 0.16 5.28-0.8 10.547-2.827 15.44-0.080 0.16-0.12 0.333-0.12 0.507-0.013 0.173 0.027 0.347 0.080 0.52 0.067 0.16 0.16 0.307 0.28 0.44 0.12 0.12 0.267 0.227 0.427 0.307 0.173 0.067 0.36 0.12 0.547 0.12 0.253-0.013 0.507-0.080 0.72-0.227 0.213-0.133 0.387-0.333 0.493-0.56zM4.667 18.667v-4c0-3.187 1.267-6.24 3.507-8.493 2.253-2.24 5.307-3.507 8.493-3.507 2.587-0.013 5.12 0.827 7.2 2.4 0.28 0.2 0.627 0.293 0.987 0.24 0.347-0.040 0.667-0.227 0.867-0.507 0.213-0.293 0.307-0.64 0.267-1-0.053-0.347-0.24-0.667-0.52-0.867-2.547-1.92-5.627-2.947-8.8-2.933-3.893-0-7.627 1.547-10.373 4.293s-4.293 6.48-4.293 10.373v4c0 0.347 0.133 0.68 0.387 0.933s0.587 0.4 0.947 0.4c0.347 0 0.68-0.147 0.933-0.4s0.4-0.587 0.4-0.933z"></path>
</symbol>
<symbol id="copie-icon" viewBox="0 0 32 32">
<path d="M24.867 1.24l-16.253 16.253c-0.627 0.613-1.12 1.347-1.453 2.16-0.333 0.8-0.507 1.68-0.493 2.547v1.8c0 0.347 0.133 0.68 0.387 0.933s0.587 0.4 0.947 0.4h1.787c0.867 0 1.747-0.173 2.547-0.507 0.813-0.333 1.547-0.827 2.16-1.453l16.267-16.253c0.773-0.787 1.213-1.84 1.213-2.947s-0.44-2.16-1.213-2.933c-0.8-0.76-1.853-1.187-2.947-1.187s-2.147 0.427-2.947 1.187zM28.867 5.24l-16.253 16.253c-0.747 0.747-1.773 1.16-2.827 1.173h-0.453v-0.467c0-1.053 0.413-2.080 1.16-2.827l16.267-16.253c0.28-0.28 0.653-0.427 1.053-0.427 0.387 0 0.773 0.147 1.053 0.427s0.44 0.653 0.44 1.053c0 0.4-0.16 0.773-0.44 1.067z"></path>
<path d="M30.667 11.96c-0.36 0-0.693 0.147-0.947 0.4-0.253 0.24-0.387 0.587-0.387 0.933v6.707h-5.333c-1.067 0-2.080 0.413-2.84 1.16-0.747 0.76-1.16 1.773-1.16 2.84v5.333h-13.333c-1.067 0-2.080-0.427-2.84-1.173-0.747-0.76-1.16-1.773-1.16-2.827v-18.667c0-1.067 0.413-2.080 1.16-2.84 0.76-0.747 1.773-1.16 2.84-1.16h12.053c0.347 0 0.693-0.147 0.933-0.4 0.253-0.253 0.4-0.587 0.4-0.933 0-0.36-0.147-0.693-0.4-0.947-0.24-0.253-0.587-0.387-0.933-0.387h-12.053c-1.773 0-3.467 0.693-4.72 1.947s-1.947 2.947-1.947 4.72v18.667c0 1.76 0.693 3.453 1.947 4.707s2.947 1.947 4.72 1.96h15.12c0.867 0 1.747-0.173 2.547-0.507 0.813-0.333 1.547-0.827 2.16-1.453l3.547-3.547c0.627-0.613 1.12-1.347 1.453-2.16 0.333-0.8 0.507-1.68 0.507-2.547v-8.493c0-0.347-0.147-0.693-0.4-0.933-0.253-0.253-0.587-0.4-0.933-0.4zM24.613 28.16c-0.533 0.533-1.213 0.907-1.947 1.067v-5.227c0-0.36 0.133-0.693 0.387-0.947s0.587-0.387 0.947-0.387h5.227c-0.16 0.733-0.533 1.413-1.067 1.947l-3.547 3.547z"></path>
</symbol>
<symbol id="dev-icon" viewBox="0 0 32 32">
<path d="M25.502 1.231h-18.794c-1.785 0-3.483 0.702-4.751 1.957-1.255 1.268-1.957 2.966-1.957 4.751v16.111c0 1.785 0.702 3.483 1.957 4.751 1.268 1.255 2.966 1.957 4.751 1.969h18.794c1.785-0.012 3.483-0.714 4.751-1.969 1.255-1.268 1.969-2.966 1.969-4.751v-16.111c0-1.785-0.714-3.483-1.969-4.751-1.268-1.255-2.966-1.957-4.751-1.957zM6.708 3.914h18.794c1.071 0 2.092 0.418 2.855 1.182 0.751 0.751 1.182 1.772 1.182 2.843v1.342h-26.855v-1.342c0-1.071 0.418-2.092 1.182-2.843 0.751-0.763 1.772-1.182 2.843-1.182zM25.502 28.074h-18.794c-1.071 0-2.092-0.418-2.843-1.182-0.763-0.751-1.182-1.772-1.182-2.843v-12.086h26.855v12.086c0 1.071-0.431 2.092-1.182 2.843-0.763 0.763-1.785 1.182-2.855 1.182zM25.502 17.342c0 0.357-0.135 0.689-0.394 0.948-0.246 0.246-0.591 0.394-0.948 0.394h-16.111c-0.357 0-0.702-0.148-0.948-0.394-0.258-0.258-0.394-0.591-0.394-0.948s0.135-0.702 0.394-0.96c0.246-0.246 0.591-0.382 0.948-0.382h16.111c0.357 0 0.702 0.135 0.948 0.382 0.258 0.258 0.394 0.603 0.394 0.96zM20.135 22.708c0 0.357-0.148 0.702-0.394 0.948-0.258 0.258-0.591 0.394-0.948 0.394h-10.745c-0.357 0-0.702-0.135-0.948-0.394-0.258-0.246-0.394-0.591-0.394-0.948s0.135-0.702 0.394-0.948c0.246-0.258 0.591-0.394 0.948-0.394h10.745c0.357 0 0.689 0.135 0.948 0.394 0.246 0.246 0.394 0.591 0.394 0.948zM4.025 6.597c0-0.271 0.074-0.529 0.222-0.751s0.357-0.394 0.603-0.492c0.246-0.098 0.517-0.123 0.775-0.074s0.505 0.172 0.689 0.369c0.185 0.185 0.32 0.418 0.369 0.689 0.049 0.258 0.025 0.529-0.074 0.775-0.111 0.246-0.283 0.455-0.505 0.603-0.209 0.148-0.48 0.222-0.738 0.222-0.357 0-0.702-0.148-0.948-0.394-0.258-0.246-0.394-0.591-0.394-0.948zM8.049 6.597c0-0.271 0.074-0.529 0.222-0.751s0.357-0.394 0.603-0.492c0.246-0.098 0.517-0.123 0.775-0.074 0.271 0.049 0.505 0.172 0.689 0.369 0.197 0.185 0.32 0.418 0.369 0.689 0.049 0.258 0.025 0.529-0.074 0.775s-0.271 0.455-0.492 0.603c-0.222 0.148-0.48 0.222-0.751 0.222-0.357 0-0.702-0.148-0.948-0.394s-0.394-0.591-0.394-0.948zM12.074 6.597c0-0.271 0.086-0.529 0.234-0.751s0.357-0.394 0.603-0.492c0.246-0.098 0.517-0.123 0.775-0.074s0.492 0.172 0.689 0.369c0.185 0.185 0.308 0.418 0.357 0.689 0.062 0.258 0.025 0.529-0.074 0.775s-0.271 0.455-0.492 0.603c-0.222 0.148-0.48 0.222-0.751 0.222-0.357 0-0.689-0.148-0.948-0.394-0.246-0.246-0.394-0.591-0.394-0.948z"></path>
</symbol>
<symbol id="design-icon" viewBox="0 0 32 32">
<path d="M25.333 0h-18.667c-1.773 0-3.467 0.693-4.72 1.947s-1.947 2.947-1.947 4.72v6.667c0 2.467 0.987 4.84 2.733 6.587s4.12 2.733 6.6 2.747h2.667v5.333c0 1.053 0.413 2.067 1.16 2.827 0.76 0.747 1.773 1.173 2.84 1.173 1.053 0 2.067-0.427 2.827-1.173 0.747-0.76 1.173-1.773 1.173-2.827v-5.333h2.667c2.467-0.013 4.84-1 6.587-2.747s2.733-4.12 2.747-6.587v-6.667c-0.013-1.773-0.707-3.467-1.96-4.72s-2.947-1.947-4.707-1.947v0zM2.667 6.667c0-1.067 0.413-2.080 1.16-2.84 0.76-0.747 1.773-1.16 2.84-1.16h6.667v1.333c0 0.347 0.133 0.68 0.387 0.933s0.587 0.4 0.947 0.4c0.347 0 0.68-0.147 0.933-0.4s0.4-0.587 0.4-0.933v-1.333h2.667v4c0 0.347 0.133 0.68 0.387 0.933s0.587 0.4 0.947 0.4c0.347 0 0.68-0.147 0.933-0.4s0.4-0.587 0.4-0.933v-4h2.667v6.667c0 0.347 0.133 0.68 0.387 0.933s0.587 0.4 0.947 0.4c0.347 0 0.68-0.147 0.933-0.4s0.4-0.587 0.4-0.933v-6.427c0.773 0.28 1.44 0.787 1.92 1.453s0.733 1.48 0.747 2.307v6.667h-26.667v-6.667zM22.667 20h-4c-0.36 0-0.693 0.133-0.947 0.387s-0.387 0.587-0.387 0.947v6.667c0 0.347-0.147 0.68-0.4 0.933s-0.587 0.4-0.933 0.4c-0.36 0-0.693-0.147-0.947-0.4s-0.387-0.587-0.387-0.933v-6.667c0-0.36-0.147-0.693-0.4-0.947s-0.587-0.387-0.933-0.387h-4c-1.307-0.013-2.573-0.387-3.653-1.093-1.080-0.72-1.933-1.72-2.453-2.907h25.533c-0.52 1.187-1.373 2.187-2.453 2.907-1.080 0.707-2.347 1.080-3.64 1.093z"></path>
</symbol>
<symbol id="search-icon" viewBox="0 0 32 32">
<path d="M31.616 29.739l-7.957-7.957c2.176-2.645 3.243-6.037 2.987-9.451s-1.813-6.592-4.352-8.896c-2.539-2.304-5.867-3.52-9.301-3.435-3.413 0.085-6.677 1.472-9.088 3.904-2.432 2.411-3.819 5.675-3.904 9.088-0.085 3.435 1.131 6.763 3.435 9.301s5.483 4.096 8.896 4.352c3.413 0.256 6.805-0.811 9.451-2.987l7.957 7.957c0.235 0.235 0.576 0.384 0.939 0.384 0.341-0.021 0.683-0.149 0.917-0.405 0.256-0.235 0.384-0.576 0.405-0.917 0-0.363-0.149-0.704-0.384-0.939zM13.355 24.021c-2.112 0-4.16-0.64-5.931-1.813-1.749-1.173-3.115-2.837-3.925-4.779-0.789-1.941-1.003-4.096-0.597-6.144 0.405-2.069 1.429-3.968 2.923-5.461s3.392-2.517 5.461-2.923c2.048-0.405 4.203-0.192 6.144 0.597 1.941 0.811 3.605 2.176 4.779 3.925 1.173 1.771 1.813 3.819 1.813 5.931-0.021 2.816-1.131 5.525-3.136 7.531s-4.715 3.115-7.531 3.136z"></path>
</symbol>
<symbol id="logo-icon" viewBox="0 0 32 32">
<path d="M30.818 0.033c-0.009 0.002-0.018 0.005-0.028 0.007-0.002 0.001-0.005 0.001-0.007 0.002l-30.123 9.348c-0.392 0.122-0.659 0.484-0.66 0.894s0.265 0.774 0.657 0.896l11.615 3.647-2.194 5.886c-0.128 0.344-0.044 0.731 0.216 0.991s0.647 0.344 0.991 0.216l5.886-2.194 3.647 11.615c0.123 0.391 0.485 0.657 0.895 0.657h0.002c0.41-0.001 0.773-0.268 0.894-0.66l9.348-30.124c0.001-0.002 0.001-0.005 0.002-0.007 0.003-0.009 0.005-0.018 0.007-0.027 0.19-0.702-0.456-1.336-1.149-1.149zM4.086 10.292l22.14-6.871-12.91 9.769-9.23-2.898zM12.553 19.447l1.727-4.633 11.946-9.040-9.040 11.946-4.633 1.727zM21.708 27.914l-2.898-9.23 9.769-12.91-6.871 22.14zM6.127 19.241c0.366-0.366 0.96-0.366 1.327 0s0.366 0.96 0 1.327l-5.628 5.628c-0.366 0.366-0.96 0.366-1.327 0s-0.366-0.96 0-1.327l5.628-5.628zM6.903 23.77c0.366-0.366 0.96-0.366 1.327 0s0.366 0.96 0 1.326l-6.629 6.629c-0.366 0.366-0.96 0.366-1.327 0s-0.366-0.96 0-1.327l6.629-6.629zM12.759 24.547c-0.366-0.366-0.96-0.366-1.326 0l-5.628 5.628c-0.366 0.366-0.366 0.96 0 1.327s0.96 0.366 1.327 0l5.628-5.628c0.366-0.366 0.366-0.96 0-1.327z"></path>
</symbol>
<symbol id="right-arrow" viewBox="0 0 32 32">
<path d="M16 0c-8.822 0-16 7.178-16 16s7.178 16 16 16 16-7.178 16-16-7.178-16-16-16zM21.877 17.028l-7.758 7.758c-0.284 0.284-0.656 0.426-1.028 0.426s-0.745-0.142-1.028-0.426c-0.568-0.568-0.568-1.489 0-2.057l6.729-6.729-6.729-6.729c-0.568-0.568-0.568-1.489 0-2.057s1.489-0.568 2.057 0l7.758 7.757c0.273 0.273 0.426 0.643 0.426 1.028s-0.153 0.756-0.426 1.029z"></path>
</symbol>
</defs>
</svg>
